<svg width="59" height="62" viewBox="0 0 59 62" fill="none" xmlns="http://www.w3.org/2000/svg">
<path d="M0 18.4454V0H7.94274C9.30846 0 10.5035 0.270197 11.5278 0.810591C12.552 1.35098 13.3487 2.11054 13.9178 3.08925C14.4868 4.06796 14.7713 5.21179 14.7713 6.52075C14.7713 7.84171 14.4778 8.98554 13.8908 9.95225C13.3098 10.919 12.4921 11.6635 11.4379 12.1859C10.3897 12.7083 9.1647 12.9694 7.76304 12.9694H3.01896V9.07861H6.75672C7.34374 9.07861 7.84391 8.97654 8.25722 8.77239C8.67652 8.56223 8.99698 8.26502 9.21861 7.88074C9.44623 7.49646 9.56004 7.04313 9.56004 6.52075C9.56004 5.99236 9.44623 5.54203 9.21861 5.16976C8.99698 4.79149 8.67652 4.50328 8.25722 4.30513C7.84391 4.10099 7.34374 3.99891 6.75672 3.99891H4.99566V18.4454H0Z" fill="#252525"/>
<path d="M21.5999 0V18.4454H16.6043V0H21.5999Z" fill="#252525"/>
<path d="M39.8889 0V18.4454H35.7199L29.071 8.75437H28.9631V18.4454H23.9675V0H28.2084L34.7495 9.65503H34.8932V0H39.8889Z" fill="#252525"/>
<path d="M42.252 18.4454V0H47.2476V7.45743H47.4992L53.034 0H58.8562L52.6386 8.21398L59 18.4454H53.034L48.9009 11.5284L47.2476 13.69V18.4454H42.252Z" fill="#252525"/>
<path d="M10.5846 49.1026C10.5367 48.5022 10.312 48.0338 9.91071 47.6976C9.51537 47.3613 8.91338 47.1932 8.10473 47.1932C7.58959 47.1932 7.16729 47.2563 6.83784 47.3824C6.51438 47.5024 6.27478 47.6676 6.11904 47.8777C5.9633 48.0879 5.88244 48.328 5.87645 48.5982C5.86447 48.8204 5.9034 49.0216 5.99325 49.2017C6.08909 49.3758 6.23884 49.5349 6.4425 49.679C6.64616 49.8171 6.90673 49.9432 7.2242 50.0573C7.54167 50.1714 7.91904 50.2735 8.35631 50.3635L9.86579 50.6878C10.8841 50.9039 11.7556 51.1891 12.4804 51.5434C13.2052 51.8976 13.7982 52.315 14.2595 52.7953C14.7207 53.2696 15.0591 53.804 15.2748 54.3985C15.4964 54.9929 15.6102 55.6414 15.6162 56.3439C15.6102 57.5568 15.3077 58.5835 14.7087 59.4241C14.1097 60.2647 13.2531 60.9042 12.139 61.3425C11.0308 61.7808 9.69807 62 8.14067 62C6.54134 62 5.14567 61.7628 3.95366 61.2885C2.76764 60.8141 1.84518 60.0846 1.18628 59.0999C0.533369 58.1092 0.203919 56.8423 0.197929 55.2991H4.94201C4.97196 55.8635 5.11272 56.3379 5.3643 56.7222C5.61588 57.1064 5.96929 57.3977 6.42453 57.5958C6.88576 57.7939 7.43385 57.893 8.06879 57.893C8.6019 57.893 9.04815 57.827 9.40755 57.6949C9.76695 57.5628 10.0395 57.3796 10.2252 57.1455C10.4109 56.9113 10.5067 56.6441 10.5127 56.3439C10.5067 56.0617 10.4139 55.8155 10.2342 55.6053C10.0605 55.3892 9.77294 55.1971 9.37161 55.0289C8.97028 54.8548 8.42819 54.6927 7.74533 54.5426L5.91239 54.1463C4.28311 53.792 2.99825 53.2006 2.05782 52.372C1.12338 51.5374 0.659159 50.3996 0.665149 48.9585C0.659159 47.7877 0.970639 46.7639 1.59959 45.8873C2.23453 45.0046 3.11206 44.3171 4.23219 43.8248C5.35831 43.3324 6.64916 43.0862 8.10473 43.0862C9.59025 43.0862 10.8751 43.3354 11.9593 43.8338C13.0435 44.3321 13.8791 45.0347 14.4661 45.9413C15.0591 46.842 15.3586 47.8957 15.3646 49.1026H10.5846Z" fill="#252525"/>
<path d="M22.5122 43.3384V61.7838H17.5165V43.3384H22.5122Z" fill="#252525"/>
<path d="M29.9113 43.3384L33.685 56.3439H33.8288L37.6025 43.3384H43.2451L37.1712 61.7838H30.3426L24.2687 43.3384H29.9113Z" fill="#252525"/>
<path d="M45.0174 61.7838V43.3384H58.2792V47.3734H50.013V50.5437H57.5964V54.5786H50.013V57.7489H58.2433V61.7838H45.0174Z" fill="#252525"/>
<path d="M20.3933 28.0068H14.4389C14.3967 27.513 14.2841 27.065 14.1011 26.6628C13.9251 26.2607 13.6788 25.915 13.362 25.6257C13.0524 25.3294 12.6758 25.1037 12.2324 24.9484C11.789 24.7862 11.2858 24.705 10.7227 24.705C9.73734 24.705 8.90331 24.9449 8.2206 25.4247C7.54493 25.9044 7.03114 26.5923 6.67922 27.4883C6.33435 28.3843 6.16191 29.4602 6.16191 30.716C6.16191 32.0424 6.33787 33.1536 6.68978 34.0496C7.04873 34.9385 7.56604 35.6088 8.24172 36.0603C8.91739 36.5048 9.73031 36.727 10.6805 36.727C11.2224 36.727 11.7081 36.66 12.1374 36.5259C12.5667 36.3848 12.9397 36.1837 13.2565 35.9227C13.5732 35.6617 13.8301 35.3477 14.0272 34.9808C14.2313 34.6069 14.3685 34.1871 14.4389 33.7215L20.3933 33.7638C20.3229 34.681 20.066 35.6158 19.6226 36.5683C19.1792 37.5136 18.5492 38.3885 17.7328 39.1928C16.9234 39.99 15.9204 40.632 14.7239 41.1188C13.5274 41.6056 12.1374 41.849 10.5538 41.849C8.56899 41.849 6.78832 41.4222 5.21175 40.5685C3.64222 39.7148 2.39997 38.459 1.485 36.8011C0.577062 35.1431 0.123095 33.1148 0.123095 30.716C0.123095 28.3032 0.587619 26.2713 1.51667 24.6204C2.44572 22.9624 3.69853 21.7101 5.27509 20.8635C6.85166 20.0098 8.61122 19.583 10.5538 19.583C11.9192 19.583 13.1755 19.77 14.3228 20.1439C15.47 20.5178 16.4765 21.0646 17.3422 21.7842C18.2079 22.4968 18.9047 23.3751 19.4325 24.4193C19.9604 25.4635 20.2806 26.6593 20.3933 28.0068Z" fill="#252525"/>
<path d="M23.0564 41.5527V19.8793H28.9263V36.8117H37.6678V41.5527H23.0564Z" fill="#252525"/>
<path d="M52.8361 19.8793H58.706V33.7638C58.706 35.4147 58.3118 36.8434 57.5235 38.0498C56.7423 39.2492 55.6514 40.177 54.2508 40.8331C52.8501 41.4822 51.2243 41.8067 49.3732 41.8067C47.5081 41.8067 45.8752 41.4822 44.4746 40.8331C43.074 40.177 41.9831 39.2492 41.2018 38.0498C40.4276 36.8434 40.0405 35.4147 40.0405 33.7638V19.8793H45.9104V33.2559C45.9104 33.9261 46.0582 34.5258 46.3538 35.0549C46.6494 35.577 47.0577 35.9862 47.5785 36.2825C48.1064 36.5788 48.7046 36.727 49.3732 36.727C50.0489 36.727 50.6472 36.5788 51.168 36.2825C51.6888 35.9862 52.0971 35.577 52.3927 35.0549C52.6883 34.5258 52.8361 33.9261 52.8361 33.2559V19.8793Z" fill="#252525"/>
</svg>
