<svg width="240" height="31" viewBox="0 0 240 31" fill="none" xmlns="http://www.w3.org/2000/svg">
<path d="M0.0795455 7.27273V0.90909H25.3636V7.27273H16.6136V30H8.82955V7.27273H0.0795455ZM28.3359 30V0.90909H49.3018V7.27273H36.2337V12.2727H48.2223V18.6364H36.2337V23.6364H49.245V30H28.3359ZM53.2188 30V0.90909H65.7756C67.9347 0.90909 69.8239 1.30208 71.4432 2.08807C73.0625 2.87405 74.322 4.00568 75.2216 5.48295C76.1212 6.96023 76.571 8.73106 76.571 10.7955C76.571 12.8788 76.107 14.6354 75.179 16.0653C74.2604 17.4953 72.9678 18.5748 71.3011 19.304C69.6439 20.0331 67.7074 20.3977 65.4915 20.3977H57.9915V14.2614H63.9006C64.8286 14.2614 65.6193 14.1477 66.2727 13.9205C66.9356 13.6837 67.4422 13.3097 67.7926 12.7983C68.1525 12.2869 68.3324 11.6193 68.3324 10.7955C68.3324 9.96212 68.1525 9.28504 67.7926 8.7642C67.4422 8.2339 66.9356 7.84564 66.2727 7.59943C65.6193 7.34375 64.8286 7.21591 63.9006 7.21591H61.1165V30H53.2188ZM70.2642 16.6477L77.5369 30H68.9574L61.8551 16.6477H70.2642ZM79.9375 30V0.90909H92.4943C94.6534 0.90909 96.5426 1.30208 98.1619 2.08807C99.7813 2.87405 101.041 4.00568 101.94 5.48295C102.84 6.96023 103.29 8.73106 103.29 10.7955C103.29 12.8788 102.826 14.6354 101.898 16.0653C100.979 17.4953 99.6866 18.5748 98.0199 19.304C96.3627 20.0331 94.4261 20.3977 92.2102 20.3977H84.7102V14.2614H90.6193C91.5473 14.2614 92.3381 14.1477 92.9915 13.9205C93.6544 13.6837 94.161 13.3097 94.5114 12.7983C94.8712 12.2869 95.0511 11.6193 95.0511 10.7955C95.0511 9.96212 94.8712 9.28504 94.5114 8.7642C94.161 8.2339 93.6544 7.84564 92.9915 7.59943C92.3381 7.34375 91.5473 7.21591 90.6193 7.21591H87.8352V30H79.9375ZM96.983 16.6477L104.256 30H95.6761L88.5739 16.6477H96.983ZM114.213 30H105.69L115.293 0.90909H126.088L135.69 30H127.168L120.804 8.92045H120.577L114.213 30ZM112.622 18.5227H128.645V24.4318H112.622V18.5227ZM138.492 30V0.90909H151.049C153.208 0.90909 155.097 1.30208 156.717 2.08807C158.336 2.87405 159.595 4.00568 160.495 5.48295C161.395 6.96023 161.844 8.73106 161.844 10.7955C161.844 12.8788 161.38 14.6354 160.452 16.0653C159.534 17.4953 158.241 18.5748 156.575 19.304C154.917 20.0331 152.981 20.3977 150.765 20.3977H143.265V14.2614H149.174C150.102 14.2614 150.893 14.1477 151.546 13.9205C152.209 13.6837 152.716 13.3097 153.066 12.7983C153.426 12.2869 153.606 11.6193 153.606 10.7955C153.606 9.96212 153.426 9.28504 153.066 8.7642C152.716 8.2339 152.209 7.84564 151.546 7.59943C150.893 7.34375 150.102 7.21591 149.174 7.21591H146.39V30H138.492ZM155.538 16.6477L162.81 30H154.231L147.129 16.6477H155.538ZM173.109 0.90909V30H165.211V0.90909H173.109ZM194.067 0.90909H201.965V19.5455C201.965 21.7614 201.435 23.679 200.374 25.2983C199.323 26.9081 197.855 28.1534 195.971 29.0341C194.086 29.9053 191.899 30.3409 189.408 30.3409C186.899 30.3409 184.702 29.9053 182.817 29.0341C180.933 28.1534 179.465 26.9081 178.414 25.2983C177.372 23.679 176.852 21.7614 176.852 19.5455V0.90909H184.749V18.8636C184.749 19.7633 184.948 20.5682 185.346 21.2784C185.744 21.9792 186.293 22.5284 186.994 22.9261C187.704 23.3239 188.509 23.5227 189.408 23.5227C190.317 23.5227 191.122 23.3239 191.823 22.9261C192.524 22.5284 193.073 21.9792 193.471 21.2784C193.869 20.5682 194.067 19.7633 194.067 18.8636V0.90909ZM205.719 0.90909H215.548L222.31 17.3864H222.651L229.412 0.90909H239.241V30H231.514V13.1818H231.287L224.81 29.7727H220.151L213.673 13.0682H213.446V30H205.719V0.90909Z" fill="#252525"/>
</svg>
